<?xml version="1.0" encoding="UTF-8"?>
<svg xmlns="http://www.w3.org/2000/svg" viewBox="0 0 1280 660.31">
  <defs>
    <style>
      .cls-1 {
        font-family: Bembo-Bold, Bembo;
        font-size: 100px;
        font-weight: 700;
      }

      .cls-2 {
        fill: none;
        stroke: #000;
        stroke-miterlimit: 10;
        stroke-width: 2px;
      }

      .cls-3 {
        fill: #172554;
      }

      .cls-4 {
        font-family: FuturaBT-Light, 'Futura Lt BT';
        font-size: 60px;
        font-weight: 300;
      }

      .cls-5 {
        fill: #fd6900;
      }
    </style>
  </defs>
  <g id="Layer_1" data-name="Layer 1">
    <path class="cls-3" d="m627.88,273.5c-11.27,5.77-22.31,11.94-33.09,18.5h-141.79v126.13c-13.02,16.66-25.05,34.13-36,52.32V76.55c10.95,18.19,22.98,35.66,36,52.32,29.92,38.33,65.07,72.4,104.35,101.13h-55.47c-17.31-14.75-33.64-30.62-48.88-47.49v74.49h145.12c9.72,5.82,19.64,11.32,29.76,16.5Z"/>
    <path class="cls-2" d="m592.01,292h2.78c-.43.26-.87.52-1.3.8-.5-.26-.99-.53-1.48-.8Z"/>
    <path class="cls-5" d="m400,81.46v389.54c-10.98-17.8-23.01-40.36-36-56.67v-122.33h-58v60.39c-11.85-10.77-24.2-21.01-37-30.67v-96.44c12.8-9.66,25.15-19.9,37-30.67v62.39h58v-124.33c9.18-11.52,17.87-23.43,26.05-35.71,3.42-5.1,6.74-10.27,9.95-15.5Z"/>
    <path class="cls-5" d="m252,237.59v71.82c-8.74-6.07-17.68-11.88-26.79-17.41-10.78-6.56-21.82-12.73-33.09-18.5,10.12-5.18,20.04-10.68,29.76-16.5,10.27-6.13,20.32-12.6,30.12-19.41Z"/>
  </g>
  <g id="Layer_3" data-name="Layer 3">
    <text class="cls-4" transform="translate(285.92 555.01)"><tspan x="0" y="0">FUNDED </tspan></text>
    <text transform="translate(140.23 637.01)"><tspan><tspan class="cls-1" x="0" y="0">HORIZON</tspan><tspan class="cls-4" x="522.07" y="0"> </tspan></tspan></text>
  </g>
</svg>