<?xml version="1.0" encoding="UTF-8"?>
<svg id="Layer_1" data-name="Layer 1" xmlns="http://www.w3.org/2000/svg" viewBox="0 0 661.77 599.03">
  <defs>
    <style>
      .cls-1 {
        fill: none;
        stroke: #000;
        stroke-miterlimit: 10;
        stroke-width: 2px;
      }

      .cls-2 {
        fill: #172554;
      }

      .cls-3 {
        fill: #fd6900;
      }
    </style>
  </defs>
  <g id="Layer_1-2" data-name="Layer 1">
    <path class="cls-2" d="m661.77,299.1c-17.12,8.76-33.88,18.13-50.25,28.1h-215.33v191.55c-19.77,25.3-38.04,51.83-54.67,79.46V0c16.63,27.62,34.9,54.16,54.67,79.46,45.44,58.21,98.82,109.95,158.47,153.58h-84.24c-26.29-22.4-51.09-46.5-74.23-72.12v113.12h220.39c14.76,8.84,29.83,17.19,45.2,25.06Z"/>
    <path class="cls-1" d="m607.3,327.19h4.22c-.65.39-1.32.79-1.97,1.21-.76-.39-1.5-.8-2.25-1.21h0Z"/>
    <path class="cls-3" d="m315.7,7.46v591.58c-16.67-27.03-34.94-61.29-54.67-86.06v-185.78h-88.08v91.71c-18-16.36-36.75-31.91-56.19-46.58v-146.46c19.44-14.67,38.19-30.22,56.19-46.58v94.75h88.08V85.23c13.94-17.49,27.14-35.58,39.56-54.23,5.19-7.75,10.24-15.6,15.11-23.54Z"/>
    <path class="cls-3" d="m90.94,244.56v109.07c-13.27-9.22-26.85-18.04-40.68-26.44-16.37-9.96-33.14-19.33-50.25-28.1,15.37-7.87,30.43-16.22,45.2-25.06,15.6-9.31,30.86-19.14,45.74-29.48h0Z"/>
  </g>
</svg>